<svg width="90" height="63" viewBox="0 0 90 63" fill="none" xmlns="http://www.w3.org/2000/svg">
<path d="M38.5612 0C42.5774 0 46.5935 0 50.7313 0C50.7313 5.41568 50.7313 10.8314 50.7313 16.4111C53.6521 16.4111 56.5729 16.4111 59.5822 16.4111C59.6431 18.8452 59.7039 21.2792 59.7666 23.7869C60.2534 22.8133 60.7402 21.8397 61.2418 20.8366C63.997 17.4656 67.3772 15.6696 71.689 15.1574C74.4817 14.9182 77.3271 14.9913 80.0501 15.6736C80.177 15.7042 80.3039 15.7349 80.4346 15.7665C83.2959 16.4751 85.9234 17.6859 88.3478 19.3615C88.1026 19.9059 87.8356 20.2878 87.4125 20.7075C87.298 20.8219 87.1836 20.9363 87.0657 21.0541C86.9426 21.1754 86.8195 21.2966 86.6926 21.4215C86.5662 21.5473 86.4399 21.6732 86.3097 21.8028C85.9066 22.2038 85.5023 22.6036 85.0979 23.0033C84.8241 23.2752 84.5504 23.5472 84.2767 23.8194C83.6064 24.4856 82.9349 25.1508 82.2628 25.8153C81.4415 25.5464 80.6509 25.2397 79.8542 24.9048C77.5845 23.9821 75.0777 23.2353 72.6872 24.1478C71.6255 24.6827 70.8612 25.4204 70.4615 26.5529C70.155 27.936 70.2908 29.0507 70.9801 30.2869C71.6948 31.1853 72.5025 31.6612 73.5372 32.1373C73.6554 32.1921 73.7736 32.247 73.8954 32.3035C74.1483 32.4207 74.4014 32.5373 74.6547 32.6533C75.0531 32.836 75.4507 33.0204 75.8482 33.2052C76.8501 33.671 77.853 34.1344 78.8562 34.5975C83.1418 36.5819 87.3774 38.6847 89.2684 43.2932C90.4864 47.1787 90.08 51.6282 88.2004 55.2281C86.388 58.5066 83.5346 60.6514 80.027 61.8414C79.8974 61.8854 79.7677 61.9295 79.6341 61.9748C77.5943 62.6222 75.5622 62.75 73.4344 62.7508C73.1663 62.7522 72.8983 62.7537 72.6302 62.7554C71.9086 62.7594 71.187 62.7611 70.4654 62.762C70.0128 62.7627 69.5602 62.7638 69.1076 62.7651C67.5236 62.7696 65.9396 62.7721 64.3556 62.7727C62.8871 62.7734 61.4187 62.7789 59.9502 62.7866C58.6826 62.7931 57.415 62.7959 56.1474 62.796C55.3933 62.7961 54.6393 62.7977 53.8852 62.803C53.175 62.8079 52.465 62.8082 51.7548 62.8053C51.4967 62.805 51.2386 62.8061 50.9806 62.8091C47.5164 62.8466 44.4556 61.6562 41.9257 59.2599C39.3423 56.5282 38.4683 53.3055 38.4984 49.6247C38.4986 49.3591 38.4985 49.0935 38.4982 48.8279C38.498 48.1149 38.5013 47.4019 38.5051 46.6888C38.5086 45.9407 38.5089 45.1926 38.5096 44.4444C38.5113 43.0313 38.5158 41.6182 38.5214 40.2051C38.5276 38.5948 38.5306 36.9845 38.5334 35.3742C38.5392 32.0649 38.5493 28.7557 38.5612 25.4465C36.6749 25.4465 34.7885 25.4465 32.845 25.4465C32.8493 26.4441 32.8493 26.4441 32.8538 27.4618C32.863 29.669 32.8691 31.8763 32.8737 34.0835C32.8765 35.4206 32.8804 36.7577 32.8867 38.0948C32.8923 39.2617 32.8958 40.4286 32.897 41.5955C32.8978 42.212 32.8997 42.8285 32.9035 43.445C32.9378 49.2937 32.0709 53.9575 27.8663 58.2688C27.7565 58.3921 27.6467 58.5155 27.5336 58.6426C25.1606 61.2458 21.0571 62.776 17.6115 62.9363C12.6215 63.0792 8.39232 61.6438 4.70605 58.1723C1.77411 55.1448 -0.00254839 51.1877 0.000532595 46.9452C0.000375045 46.8138 0.000216601 46.6824 5.4276e-05 46.5471C-0.000247601 46.1102 0.000762762 45.6734 0.00177341 45.2366C0.00182546 44.9221 0.00179616 44.6076 0.00169182 44.2931C0.00163901 43.4418 0.00272146 42.5904 0.00401026 41.739C0.00516457 40.8484 0.00527154 39.9577 0.00549023 39.0671C0.00606287 37.3816 0.00757499 35.6961 0.00942652 34.0107C0.011489 32.0913 0.0125023 30.172 0.0134275 28.2527C0.0153538 24.3055 0.0187348 20.3583 0.0227069 16.4111C4.03883 16.4111 8.05495 16.4111 12.1928 16.4111C12.1982 17.8658 12.1982 17.8658 12.2038 19.3499C12.2162 22.5522 12.2305 25.7545 12.2458 28.9568C12.255 30.8986 12.2636 32.8403 12.2706 34.7821C12.2766 36.4747 12.284 38.1674 12.2929 39.86C12.2975 40.7561 12.3015 41.6521 12.304 42.5482C12.3064 43.3921 12.3105 44.236 12.3158 45.0799C12.3175 45.3891 12.3186 45.6983 12.3189 46.0076C12.3196 46.431 12.3224 46.8544 12.3258 47.2778C12.3268 47.5144 12.3279 47.751 12.3289 47.9948C12.4163 49.2368 12.6771 50.281 13.4835 51.2618C14.5561 52.1678 15.4119 52.4383 16.8178 52.4178C17.8362 52.3238 18.6441 52.0191 19.3575 51.2726C20.128 50.2788 20.3335 49.5262 20.3353 48.2756C20.3362 48.1396 20.3371 48.0036 20.3381 47.8635C20.3409 47.4065 20.3425 46.9496 20.344 46.4926C20.3458 46.1655 20.3476 45.8384 20.3495 45.5113C20.3545 44.6222 20.3584 43.733 20.3621 42.8439C20.3661 41.9151 20.3712 40.9863 20.3761 40.0576C20.3853 38.2983 20.3936 36.539 20.4015 34.7797C20.4123 32.4027 20.4246 30.0257 20.4367 27.6487C20.4558 23.9029 20.473 20.157 20.4905 16.4111C26.4539 16.4111 32.4172 16.4111 38.5612 16.4111C38.5612 10.9955 38.5612 5.57979 38.5612 0ZM59.3979 24.5245C59.5822 24.8933 59.5822 24.8933 59.5822 24.8933L59.3979 24.5245ZM50.7313 25.4465C50.7188 28.6907 50.7086 31.935 50.7026 35.1792C50.6998 36.6857 50.6959 38.1921 50.6896 39.6986C50.684 41.0119 50.6805 42.3253 50.6792 43.6387C50.6785 44.3338 50.6768 45.0288 50.6728 45.7239C50.669 46.379 50.6679 47.034 50.6687 47.689C50.6685 48.0424 50.6655 48.3958 50.6625 48.7492C50.6674 50.1288 50.7496 51.2514 51.5755 52.4063C51.6772 52.504 51.7789 52.6017 51.8838 52.7024C51.9836 52.8024 52.0834 52.9025 52.1863 53.0056C53.3908 53.8867 54.4885 53.9234 55.9357 53.9149C56.2427 53.9163 56.2427 53.9163 56.5559 53.9178C57.2302 53.9202 57.9045 53.9186 58.5789 53.9168C59.0489 53.9171 59.519 53.9177 59.989 53.9184C60.9735 53.9192 61.9579 53.9181 62.9423 53.9154C64.0774 53.9124 65.2125 53.9134 66.3476 53.9164C67.4431 53.9193 68.5386 53.9189 69.6341 53.9173C70.0986 53.917 70.5632 53.9174 71.0277 53.9187C71.6778 53.9201 72.3278 53.918 72.9778 53.9149C73.2643 53.9166 73.2643 53.9166 73.5565 53.9183C75.253 53.9035 76.4661 53.5143 77.7206 52.3336C78.4468 51.5275 78.4741 50.5793 78.4474 49.5388C78.2947 48.224 77.839 47.2328 76.8011 46.3851C75.9464 45.8274 74.9889 45.4789 74.0428 45.1068C73.3997 44.8529 72.7606 44.5892 72.1218 44.3246C71.9949 44.2721 71.8679 44.2195 71.7371 44.1654C69.1631 43.0902 66.6966 41.8243 64.5609 40.0137C64.3181 39.8122 64.3181 39.8122 64.0704 39.6067C61.4652 37.363 59.5049 34.2461 59.0291 30.7939C59.0076 30.3295 58.9968 29.8644 58.9945 29.3995C58.9919 29.1634 58.9893 28.9274 58.9866 28.6842C59.0415 27.5977 59.2324 26.5218 59.3979 25.4465C56.5379 25.4465 53.6779 25.4465 50.7313 25.4465Z" fill="#21AC6D"/>
</svg>
